<?xml version="1.0" encoding="UTF-8"?>
<svg xmlns="http://www.w3.org/2000/svg" id="art" viewBox="0 0 600 150">
  <defs>
    <style>.cls-1{fill:#20a4d8;}.cls-2{fill:#2eb77c;}.cls-3{fill:#173446;}.cls-4{fill:#f85757;}</style>
  </defs>
  <path class="cls-3" d="M232.8,41v.2c.2,5.9-1.7,10.7-5.7,14.4-4,3.7-9.3,5.5-16.1,5.5s-12.4-2.3-16.7-6.9c-4.3-4.6-6.4-10.5-6.4-17.7v-11.2c0-7.2,2.1-13.1,6.3-17.7,4.2-4.7,9.7-7,16.5-7s12.4,1.8,16.4,5.3c4,3.5,5.9,8.4,5.8,14.5v.2h-9.6c0-3.9-1.1-7-3.2-9-2.1-2.1-5.3-3.1-9.4-3.1s-7.2,1.6-9.5,4.8c-2.3,3.2-3.5,7.2-3.5,12v11.3c0,4.9,1.2,8.9,3.6,12.1,2.4,3.2,5.6,4.8,9.7,4.8s7.1-1.1,9.2-3.2c2.1-2.1,3.1-5.1,3.1-9.1h9.5Z"></path>
  <path class="cls-3" d="M268.6,53.8c-1.3,2.3-3.1,4.2-5.2,5.4-2.1,1.3-4.6,1.9-7.3,1.9-4.7,0-8.4-1.5-11-4.6-2.6-3.1-4-7.9-4-14.4v-25.6h9.8v25.7c0,4.2.6,7,1.8,8.6,1.2,1.6,3.1,2.3,5.7,2.3s4.4-.4,6-1.3c1.6-.8,2.9-2.1,3.8-3.7v-31.6h9.8v43.8h-8.5l-.9-6.5Z"></path>
  <path class="cls-3" d="M310,25.4l-4.2-.2c-1.9,0-3.5.4-4.8,1.2-1.3.8-2.3,2-3,3.4v30.4h-9.8V16.5h9l.6,6.4c1.1-2.2,2.5-4,4.3-5.3,1.7-1.3,3.7-1.9,6-1.9s1.1,0,1.7.1c.5,0,1,.2,1.4.3l-1.2,9.2Z"></path>
  <path class="cls-3" d="M335.1,61.1c-6.4,0-11.4-2-15-6-3.6-4-5.4-9.3-5.4-15.7v-1.6c0-6.4,1.8-11.7,5.4-15.9,3.6-4.2,8.2-6.2,13.9-6.2,5.9,0,10.3,1.8,13.4,5.4,3,3.6,4.5,8.5,4.5,14.5v5.3h-27.1v.2c0,3.6,1,6.5,2.8,8.7,1.8,2.2,4.5,3.4,8.1,3.4s5-.3,6.9-1c2-.6,3.8-1.6,5.4-2.8l3.2,6.4c-1.7,1.5-3.9,2.7-6.6,3.7-2.8,1-5.9,1.5-9.5,1.5ZM334.1,23.6c-2.6,0-4.6.9-6.1,2.8-1.5,1.8-2.5,4.3-2.9,7.2v.2h17.2v-.8c0-2.8-.7-5.1-2-6.8-1.3-1.7-3.4-2.6-6.2-2.6Z"></path>
  <path class="cls-3" d="M427.6,60.3h-9.8l-26.1-42.4h-.2v42.4h-9.8V1.4h9.8l26.1,42.4h.2V1.4h9.8v58.9Z"></path>
  <path class="cls-3" d="M473.5,35.1h-23.7v25.1h-9.8V1.4h37.7v7.9h-27.9v18h23.7v7.9Z"></path>
  <path class="cls-3" d="M523,60.3h-38v-6.8l18.4-21.3c3-3.5,5.1-6.4,6.2-8.7,1.2-2.3,1.7-4.5,1.7-6.6s-.7-4.6-2.1-6.1c-1.4-1.6-3.4-2.4-6-2.4s-5.4,1-7,3c-1.6,2-2.4,4.5-2.4,7.4h-9.5v-.2c-.2-5,1.4-9.3,4.9-12.8,3.5-3.5,8.1-5.2,14-5.2s10,1.5,13.2,4.5c3.2,3,4.8,7,4.8,11.9s-.9,6.4-2.6,9.3c-1.8,2.9-4.7,6.8-8.7,11.7l-12.4,14.2v.2h25.6v7.8Z"></path>
  <path class="cls-3" d="M223.3,123.6h-23.7v25.1h-9.8v-58.9h37.7v7.9h-27.9v18h23.7v7.9Z"></path>
  <path class="cls-3" d="M231.9,126.5c0-6.5,1.8-11.9,5.4-16,3.6-4.2,8.5-6.3,14.7-6.3s11.2,2.1,14.8,6.3c3.6,4.2,5.4,9.5,5.4,16v.8c0,6.6-1.8,11.9-5.4,16.1-3.6,4.1-8.5,6.2-14.7,6.2s-11.2-2.1-14.7-6.2c-3.6-4.2-5.4-9.5-5.4-16.1v-.8ZM241.7,127.3c0,4.3.8,7.8,2.5,10.4,1.7,2.7,4.3,4,7.8,4s6-1.3,7.7-4c1.7-2.7,2.6-6.2,2.6-10.4v-.8c0-4.2-.9-7.6-2.6-10.3-1.7-2.7-4.3-4.1-7.8-4.1s-6,1.4-7.7,4.1c-1.7,2.7-2.5,6.2-2.5,10.3v.8Z"></path>
  <path class="cls-3" d="M308,142.3c-1.3,2.3-3.1,4.2-5.2,5.4-2.1,1.3-4.6,1.9-7.3,1.9-4.7,0-8.4-1.5-11-4.6-2.6-3.1-4-7.9-4-14.4v-25.6h9.8v25.7c0,4.2.6,7,1.8,8.6,1.2,1.6,3.1,2.3,5.7,2.3s4.4-.4,6-1.3c1.6-.8,2.9-2.1,3.8-3.7v-31.6h9.8v43.8h-8.5l-.9-6.5Z"></path>
  <path class="cls-3" d="M336.5,105l.6,6.3c1.4-2.2,3.2-4,5.4-5.2,2.2-1.3,4.6-1.9,7.3-1.9,4.6,0,8.1,1.4,10.7,4.2,2.5,2.8,3.8,7.2,3.8,13.1v27.2h-9.8v-27.1c0-3.4-.7-5.8-2-7.2-1.3-1.4-3.3-2.1-6-2.1s-3.9.4-5.5,1.2c-1.5.8-2.8,1.9-3.7,3.3v32h-9.8v-43.8h9Z"></path>
  <path class="cls-3" d="M372.7,127.5c0-7,1.5-12.6,4.5-16.9,3-4.3,7.2-6.4,12.6-6.4s4.5.5,6.4,1.4c1.9,1,3.5,2.3,4.9,4.1v-24.1h9.8v63.1h-8l-1.2-5.5c-1.4,2.1-3.1,3.7-5.1,4.8-2,1.1-4.3,1.6-6.9,1.6-5.4,0-9.5-2-12.5-5.9-3-3.9-4.5-9-4.5-15.4v-.8ZM382.5,128.3c0,4,.8,7.3,2.3,9.7,1.6,2.4,4,3.6,7.4,3.6s3.8-.4,5.3-1.3c1.4-.9,2.6-2.2,3.5-3.8v-19.1c-.9-1.6-2.1-2.9-3.6-3.8-1.5-.9-3.2-1.4-5.2-1.4-3.3,0-5.8,1.4-7.4,4.2-1.6,2.8-2.4,6.5-2.4,11v.8Z"></path>
  <path class="cls-3" d="M447.8,148.8c-.4-1.1-.6-2.2-.9-3.2-.2-1.1-.4-2.1-.5-3.2-1.3,2-3.1,3.8-5.3,5.2-2.2,1.4-4.7,2.1-7.4,2.1-4.6,0-8.1-1.2-10.5-3.5-2.4-2.3-3.7-5.6-3.7-9.7s1.7-7.5,5-9.9c3.3-2.4,8.1-3.5,14.1-3.5h7.6v-3.8c0-2.3-.7-4.1-2-5.4-1.3-1.3-3.3-1.9-5.8-1.9s-4,.5-5.3,1.6c-1.3,1.1-2,2.4-2,4.1h-9.5s0-.2,0-.2c-.2-3.5,1.4-6.5,4.6-9.2,3.3-2.7,7.5-4,12.8-4s9.2,1.3,12.3,3.9c3.1,2.6,4.7,6.3,4.7,11.2v19.5c0,1.8.1,3.5.4,5.2.2,1.7.6,3.3,1.2,4.9h-10ZM435.8,141.7c2.5,0,4.7-.6,6.7-1.9,2-1.2,3.3-2.7,3.9-4.2v-6.5h-7.8c-2.9,0-5.1.7-6.7,2.1-1.6,1.4-2.4,3.1-2.4,5s.5,3,1.6,4c1.1,1,2.7,1.5,4.7,1.5Z"></path>
  <path class="cls-3" d="M479.1,94.3v10.6h7.8v7.3h-7.8v24.2c0,1.8.4,3.1,1.2,3.9.8.8,1.8,1.2,3.1,1.2s1.1,0,1.6-.1c.5,0,1-.2,1.5-.4l1.1,7.2c-.8.5-1.8.8-3,1.1-1.1.3-2.3.4-3.6.4-3.6,0-6.5-1.1-8.5-3.2-2.1-2.1-3.1-5.4-3.1-10v-24.2h-6.7v-7.3h6.7v-10.6h9.8Z"></path>
  <path class="cls-3" d="M505.4,94.3h-9.8v-8.6h9.8v8.6ZM505.4,148.8h-9.8v-43.8h9.8v43.8Z"></path>
  <path class="cls-3" d="M514.6,126.5c0-6.5,1.8-11.9,5.4-16,3.6-4.2,8.5-6.3,14.7-6.3s11.2,2.1,14.8,6.3c3.6,4.2,5.4,9.5,5.4,16v.8c0,6.6-1.8,11.9-5.4,16.1-3.6,4.1-8.5,6.2-14.7,6.2s-11.2-2.1-14.7-6.2c-3.6-4.2-5.4-9.5-5.4-16.1v-.8ZM524.4,127.3c0,4.3.8,7.8,2.5,10.4,1.7,2.7,4.3,4,7.8,4s6-1.3,7.7-4c1.7-2.7,2.6-6.2,2.6-10.4v-.8c0-4.2-.9-7.6-2.6-10.3-1.7-2.7-4.3-4.1-7.8-4.1s-6,1.4-7.7,4.1c-1.7,2.7-2.5,6.2-2.5,10.3v.8Z"></path>
  <path class="cls-3" d="M572.2,105l.6,6.3c1.4-2.2,3.2-4,5.4-5.2,2.2-1.3,4.6-1.9,7.3-1.9,4.6,0,8.1,1.4,10.7,4.2,2.5,2.8,3.8,7.2,3.8,13.1v27.2h-9.8v-27.1c0-3.4-.7-5.8-2-7.2-1.3-1.4-3.3-2.1-6-2.1s-3.9.4-5.5,1.2c-1.5.8-2.8,1.9-3.7,3.3v32h-9.8v-43.8h9Z"></path>
  <path class="cls-4" d="M50.9,50.8s0,0,0,0l-25.6,7.5s0,0,0,0h0c.2,1,.4,2.1.7,3.4l24.8-7.3h0s0,0,0,0h0s0,0,0,0h0c0-1.1,0-2.3.1-3.5h0Z"></path>
  <path class="cls-1" d="M129.6,23.6c1.2,1.3,2.3,2.6,3.4,3.9-1.1-1.3-2.2-2.6-3.4-3.9Z"></path>
  <path class="cls-1" d="M120.8,123.9c-3.1,2.6-6.5,4.8-10.1,6.8-6.1-23.3-34.4-30-55.3-39.5-2.2-1-4.3-2-6.3-3.1-1.7-.9-3.3-1.9-4.9-2.8-4.8-3-8.7-6.2-11.5-9.4l2.5-.8,14.3-4.6c-.5,4.2-1,9.5-1.9,14.2.6.3,1.1.6,1.7.9,1,.5,2.1,1.1,3.1,1.6,2.6-11,4.9-24.3,6.5-35.1-4.3-13.1-4.6-20.2-3.8-24,0,0,0-.2,0-.3,0-.3,0-.5,0-.8,0-.2,0-.4,0-.5,0-.3,0-.5,0-.8,0-.2,0-.3,0-.5,0-.3,0-.5,0-.8,0-.2,0-.3,0-.5,0-.3,0-.5,0-.8,0-.1,0-.3,0-.4,0-.4,0-.8,0-1.2,0,0,0-.1,0-.2.2-5.1,1.6-9.6,4.1-13.3.4-.6.8-1.1,1.2-1.6.7-.9,1.4-1.8,2.2-2.6,1.2-1.3,2.4-2.4,3.7-3.4-14.6,1.7-27.8,7.6-38.6,16.4-3.2,2.6-6.1,5.5-8.8,8.5C7,38.7,0,56,0,75c0,30.1,17.8,56.1,43.4,68,3,1.4,6,2.6,9.2,3.6,7.1,2.2,14.6,3.4,22.4,3.4s18.2-1.7,26.4-4.8c2.6-1,5.2-2.1,7.7-3.4,7.5-3.8,14.3-8.9,20.1-15-.9-.7-1.8-1.4-2.7-2.1l-5.7-.9ZM45.8,12.3c.6,1.7,1.4,4.3,2.2,7.6l-18.7,5c4.8-5,10.3-9.3,16.4-12.6ZM26.4,29.2l22.3-6c.6,3.2,1.2,6.9,1.6,11.2l-25.6,6.8c.3-4.4.9-8.6,1.6-12.1ZM24.6,44.8l26-6.9c.2,2.8.3,5.9.3,9.2.1,4.9-.3,11.4-.3,11.4h0c-.2,2.7-.4,5.4-.7,8.3l-19.4,6.2c-.5-.8-1-1.5-1.4-2.3-1-1.9-1.7-3.9-2.4-6h0c-1.5-4.7-1.9-9.6-1.9-9.6h0c-.4-3.5-.4-7-.3-10.3ZM43.2,102.1c-2.8,9-3.5,17.6-2.8,25.4l.2,2.3-1.9-3.5c-16.9-12.3-27.9-32.2-27.9-54.7s1.4-19.8,3.1-25.7h.3c0,1.5,0,3,0,4.5.5,10.8,4.2,20,9.2,26.9,4.4,6.1,12,9.6,20.5,12.7,1.7.6,3.4,1.2,5.1,1.7,1.6.5,3.2,1.1,4.8,1.6,6.1,2,12.3,4.3,17.8,7.3l-24.4,7.2c.5-2.8,1.1-5.8,1.9-8.9.3-1.2.9-3.2,1.2-4.4-.4-.1-.8-.3-1.1-.4-1.2-.4-2.3-.8-3.5-1.2-.7,2.8-1.7,6.3-2.5,9ZM46.7,111.5l28.1-8.9c1.3.9,2.6,1.8,3.7,2.8,2,1.7,3.9,3.7,5.7,5.9l-37.8,12c-.2-3.7-.2-7.6.3-11.8ZM96.1,136.7c-5.7,1.6-11.7,2.4-17.9,2.4-11.1,0-21.5-2.7-30.7-7.4-.3-1.5-.6-3.1-.8-4.7l39.8-12.7c1.8,2.4,3.4,5,5,7.7l-31.7,10.7,1.3.6c.8.4,1.6.6,2.5.8l2.1.4,27.5-9.3c1.9,3.6,3.5,7.2,4.9,10.8.6,1.5,1.1,2.9,1.6,4.3l-3.7-3.7Z"></path>
  <path class="cls-1" d="M138.1,34.7c0,.2.2.4.3.6,0,0,0,.1,0,.2.1.3.2.5.3.8,0,0,0,.1,0,.2,0,.2.2.4.2.6,0,0,0,.1,0,.2,0,.2.2.4.2.6h0c0,.3.2.5.2.7,0,0,0,.1,0,.2,0,.2,0,.3.1.5,0,0,0,.1,0,.2,0,.2.1.4.1.6,0,0,0,0,0,.1,0,.2,0,.3,0,.5,0,0,0,.1,0,.2,0,.2,0,.3,0,.5h0c0,.3,0,.4,0,.6,0,0,0,0,0,.1,0,0,0,.1,0,.2,0,0,0,0,0,.1,0,.1,0,.2,0,.3,0,0,0,.2,0,.2,0,.1,0,.2,0,.3,0,0,0,.1,0,.1l.3,2.3c2.4,5.8,4.1,12,4.8,18.5,1.4.4,2.8.8,4.1,1.2-1.5-11.6-5.7-22.4-11.8-31.7.1.3.3.5.4.8,0,0,0,.2.1.2Z"></path>
  <path class="cls-1" d="M144.2,85.7c-1.3,5.9-3.3,11.5-5.9,16.7,1.7,1.1,3.4,2.2,5.2,3.3,2.8-6.2,4.7-12.8,5.7-19.7-.4-.2-.9-.4-1.3-.5l-3.7.3Z"></path>
  <path class="cls-1" d="M77.9.6c-.2,0-.3.2-.5.3,0,0-.1,0-.2.1-.2.1-.4.3-.7.4l-1.7,2.7c1.1,0,2.2,0,3.3,0,1.9,0,3.7,0,5.5.2,10.3-3.2,25,3.7,36.3,10.7C108.4,6.3,94.2.9,78.8,0c-.2.1-.5.2-.7.4,0,0-.1,0-.2.1Z"></path>
  <path class="cls-2" d="M150,73.3c0-.1,0-.3,0-.4,0-.5,0-1.1,0-1.6,0-.1,0-.2,0-.4,0-.4,0-.9,0-1.3,0-.2,0-.3,0-.5,0-.5,0-1-.1-1.5,0-.2,0-.4,0-.6,0-.4,0-.7-.1-1.1,0-.2,0-.4,0-.5-1.3-.4-2.6-.8-4.1-1.2-12.4-3.8-30.3-11.4-44.2-25.5C67.3,4.1,94.6-.2,117.4,17.7c13.8,10.8,14,26.3-13.8,6.8-.3-.2-.8.1-.6.5,1.1,2.7,4.7,9.2,15.4,15.1,12.5,6.9,19.9,8.2,21.5,4.2.1-.3.2-.7.3-1.1,0-.1,0-.2,0-.3,0,0,0-.1,0-.2,0-.1,0-.2,0-.3,0-.1,0-.2,0-.3,0,0,0,0,0-.1,0-.2,0-.3,0-.5h0c0-.2,0-.4,0-.6,0,0,0-.1,0-.2,0-.2,0-.3,0-.5,0,0,0,0,0-.1,0-.2,0-.4-.1-.6,0,0,0-.1,0-.2,0-.2,0-.3-.1-.5,0,0,0-.1,0-.2,0-.2-.1-.4-.2-.7h0c0-.3-.2-.5-.2-.7,0,0,0-.1,0-.2,0-.2-.2-.4-.2-.6,0,0,0-.1,0-.2-.1-.2-.2-.5-.3-.8,0,0,0-.1,0-.2,0-.2-.2-.4-.3-.6,0,0,0-.2-.1-.2-.1-.3-.3-.5-.4-.8h0s0,0,0,0c-.3-.4-.6-.9-.9-1.3h0c-.3-.5-.6-.9-.9-1.3h0c-.3-.5-.6-.9-.9-1.3h0c-.6-.7-1.1-1.4-1.7-2.2-1.1-1.3-2.2-2.6-3.4-3.9h0c-.3-.4-.6-.7-.9-1,0,0-.2-.2-.3-.3-.3-.3-.6-.6-.8-.8-.1-.1-.2-.2-.4-.4-.3-.3-.5-.5-.8-.8-.1-.1-.3-.3-.4-.4-.3-.2-.5-.5-.8-.7-.2-.1-.3-.3-.5-.4-.3-.2-.5-.5-.8-.7-.2-.1-.3-.3-.5-.4-.3-.2-.5-.5-.8-.7-.1-.1-.3-.2-.4-.4-.7-.6-1.4-1.1-2.1-1.7h0s0,0,0,0c-11.3-7-26-13.9-36.3-10.7-3,.9-5.6,2.7-7.7,5.7-9.1,13.2,17.5,51.4,68.5,74,1.5.7,3.1,1.3,4.6,2h0c0-.3,0-.5.1-.8,0,0,0-.2,0-.2,0-.5.1-.9.2-1.4,0-.1,0-.2,0-.4,0-.3,0-.7.1-1,0-.2,0-.4,0-.7,0-.3,0-.6,0-.9,0-.5,0-1,0-1.5,0-.2,0-.4,0-.6,0-.4,0-.8,0-1.2,0-.2,0-.4,0-.5,0-.6,0-1.1,0-1.7s0-1.1,0-1.7Z"></path>
  <path class="cls-2" d="M70.5,7.5c.8-1.2,1.7-2.3,2.7-3.3,1.1-1.1,2.2-2,3.4-2.8.2-.1.4-.3.7-.4,0,0,.1,0,.2-.1.2-.1.3-.2.5-.3,0,0,.1,0,.2-.1.2-.1.5-.3.7-.4-1.2,0-2.5,0-3.8,0-3,0-6,.2-8.9.5-1.3,1-2.5,2.2-3.7,3.4-.8.8-1.5,1.7-2.2,2.6-.4.5-.8,1.1-1.2,1.6-2.5,3.6-3.9,8.1-4.1,13.3,0,0,0,.1,0,.2,0,.4,0,.8,0,1.2,0,.1,0,.3,0,.4,0,.3,0,.5,0,.8,0,.2,0,.3,0,.5,0,.3,0,.5,0,.8,0,.2,0,.3,0,.5,0,.3,0,.5,0,.8,0,.2,0,.4,0,.5,0,.3,0,.5,0,.8,0,0,0,.2,0,.3,0,0,0,.2,0,.2,0,.3,0,.6.1.8,0,.2,0,.3,0,.5,0,.3.1.7.2,1,0,.1,0,.2,0,.4,0,.4.2.9.3,1.4,0,.1,0,.2,0,.3,0,.4.2.7.2,1.1,0,.2,0,.3.1.5,0,.3.1.6.2.9,0,.2,0,.4.2.6,0,.3.2.6.2.9,0,.2.1.4.2.6,0,.3.2.6.3.9,0,.2.1.4.2.6,0,.3.2.6.3.9,0,.2.1.4.2.6.1.3.2.6.3,1,0,.2.1.3.2.5,0,0,0,0,0,.1.4,1,.7,2,1.1,3,0,.2.2.4.2.6,1.5,3.8,3.4,7.6,5.7,11.7,11.1,20,30.6,42.9,57.4,65.1,2,1.6,4,3.3,6.1,4.9,5.9-6.2,10.8-13.3,14.3-21.2-1.8-1.1-3.5-2.2-5.2-3.3C84.5,67.7,58.6,24.6,70.5,7.5Z"></path>
</svg>
